/* XPM */
static char *carboncoin__[] = {
/* columns rows colors chars-per-pixel */
"16 16 171 2 ",
"   c black",
".  c #000300",
"X  c #000A00",
"o  c #0D000A",
"O  c #001003",
"+  c #001404",
"@  c #0A1307",
"#  c #0B1A0F",
"$  c #120010",
"%  c #091C12",
"&  c #121C14",
"*  c #181B16",
"=  c #1C1B1A",
"-  c #1A1C1C",
";  c #142015",
":  c #1A231F",
">  c #1F2723",
",  c #222620",
"<  c #252225",
"1  c #242822",
"2  c #242A26",
"3  c #232D24",
"4  c #252F28",
"5  c #2B2B2A",
"6  c #292F2C",
"7  c #2B302C",
"8  c #2C342C",
"9  c #2E3330",
"0  c #323634",
"q  c #373B39",
"w  c #3B3E3B",
"e  c #41393F",
"r  c #3E433D",
"t  c #3E413F",
"y  c #3E4340",
"u  c #424441",
"i  c #414543",
"p  c #434542",
"a  c #424643",
"s  c #444543",
"d  c #434744",
"f  c #454846",
"g  c #454947",
"h  c #474A48",
"j  c #464B48",
"k  c #484B49",
"l  c #4A4D4B",
"z  c #4C4F4D",
"x  c #4E504E",
"c  c #4E514F",
"v  c #4E5150",
"b  c #535553",
"n  c #545553",
"m  c #545654",
"M  c #555755",
"N  c #565855",
"B  c #565956",
"V  c #585A58",
"C  c #5B5C5A",
"Z  c #616362",
"A  c #626463",
"S  c #666866",
"D  c #686368",
"F  c #686A69",
"G  c #6F696E",
"H  c #717271",
"J  c #757674",
"K  c #777978",
"L  c #7A7C7B",
"P  c #009300",
"I  c #009B00",
"U  c #009F00",
"Y  c #00A300",
"T  c #1F9352",
"R  c #19AD40",
"E  c #20A940",
"W  c #5EB86C",
"Q  c #76A986",
"!  c #74AC86",
"~  c #7AC284",
"^  c #828382",
"/  c #858684",
"(  c #8C878B",
")  c #8B888B",
"_  c #898B8A",
"`  c #8C8D8D",
"'  c #8F908F",
"]  c #909190",
"[  c #9B979A",
"{  c #9A9B9B",
"}  c #9C999B",
"|  c #9EA09F",
" . c #9FA09F",
".. c #ABA6AB",
"X. c #A9AAAA",
"o. c #ACADAC",
"O. c #ADAEAD",
"+. c #B4AEB3",
"@. c #B2B2B2",
"#. c #B2B3B2",
"$. c #B0B4B1",
"%. c #B5B2B4",
"&. c #B3B4B4",
"*. c gray71",
"=. c #B6B5B6",
"-. c #B6B6B6",
";. c #B5B9B6",
":. c gray72",
">. c #BBBCBB",
",. c #BBBCBC",
"<. c gray74",
"1. c #81C189",
"2. c #82C48B",
"3. c #8EC596",
"4. c #92C798",
"5. c #99CA9E",
"6. c #9CCBA2",
"7. c #9FCCA4",
"8. c #A0CCA5",
"9. c #A4CEAA",
"0. c #A9D3AE",
"q. c #B6CFBD",
"w. c #B2DAB7",
"e. c #C0C0C0",
"r. c gray76",
"t. c #C3C3C3",
"y. c #C2C6C3",
"u. c #C4C1C4",
"i. c gray77",
"p. c #C6C6C6",
"a. c #C7CAC7",
"s. c #C5CFC6",
"d. c #C6CDC9",
"f. c gray79",
"g. c #C9CACA",
"h. c #CBCCCB",
"j. c #C0D5C5",
"k. c #C7DBC9",
"l. c #C3DCC8",
"z. c #C9D8CE",
"x. c #CED6D0",
"c. c #D1DBD2",
"v. c #DBDCDB",
"b. c #DBDCDC",
"n. c #DFDFDF",
"m. c #D1E1D3",
"M. c #D1E0D5",
"N. c #D2E3D7",
"B. c #D5ECD7",
"V. c #D7E2DA",
"C. c #D7E8D9",
"Z. c #DBE9DF",
"A. c #DBECDC",
"S. c #DFECE0",
"D. c #E1E1E1",
"F. c #E2E2E2",
"G. c gray89",
"H. c gray90",
"J. c #E6E6E6",
"K. c #E7E7E7",
"L. c #E1E9E5",
"P. c gray91",
"I. c #E9E9E9",
"U. c gray92",
"Y. c gray93",
"T. c #EEEEEE",
"R. c #EFEFEF",
"E. c #EDF5EE",
"W. c #F3F3F3",
"Q. c #F4F4F4",
"!. c None",
/* pixels */
"!.!.!.!.!.J.f.t.<.h.U.!.!.!.!.!.",
"!.!.!.R.@.H u , 1 u J =.Q.!.!.!.",
"!.!.F./ . u m C B B s . ' P.!.!.",
"!.R.^ . m m r = e = 8 V . ] Q.!.",
"!.O.. b z . G :.s.f.( & M . =.!.",
"F.S w h @ +.m.2.W ~ C.[ 3 w L R.",
"t.7 h 5 @.q.l.E Y I R c.$ . . f.",
":.O & i.N.Q z.E.7.8.5.S.%. .} b.",
":.X % u.B.4.6.9.3.A.L.V.=.{ { b.",
"t.3 s - =.0.Y P 2.j.T x.o . . f.",
"D.A 0 y . ..k.w.Z.! N.[ % q K R.",
"!.... l i . D u.d.t.) . v . %.!.",
"!.P.L . h f 4 . < . + v . ` Q.!.",
"!.!.D.L . 6 i z h f 9 . ) J.!.!.",
"!.!.!.R.O.A > . . > F &.W.!.!.!.",
"!.!.!.!.!.G.u.,.<.f.P.!.!.!.!.!."
};
