/* XPM */
static char *carboncoin__[] = {
/* columns rows colors chars-per-pixel */
"32 32 137 2 ",
"   c #000000",
".  c #000900",
"X  c #011403",
"o  c #091204",
"O  c #061904",
"+  c #03140E",
"@  c #0B160C",
"#  c #0A1B0E",
"$  c #171C15",
"%  c #161F19",
"&  c #16201C",
"*  c #1B241D",
"=  c #1C2420",
"-  c #212623",
";  c #282E27",
":  c #252D28",
">  c #2A2F2C",
",  c #2C332E",
"<  c #2F3431",
"1  c #323533",
"2  c #343935",
"3  c #373C3A",
"4  c #3A3E3C",
"5  c #006C00",
"6  c #007200",
"7  c #007A00",
"8  c #3D403E",
"9  c #3F4240",
"0  c #424543",
"q  c #464946",
"w  c #484A47",
"e  c #474A48",
"r  c #4B4D4B",
"t  c #4E504E",
"y  c #4F5450",
"u  c #525452",
"i  c #555856",
"p  c #575A58",
"a  c #5A5D5B",
"s  c #646664",
"d  c #676967",
"f  c #6A6C6B",
"g  c #6E706F",
"h  c #717372",
"j  c #777877",
"k  c #777978",
"l  c #7B7C7B",
"z  c #00800A",
"x  c #009C00",
"c  c #00A100",
"v  c #00A30E",
"b  c #00A311",
"n  c #00A31B",
"m  c #008835",
"M  c #00883C",
"N  c #00A424",
"B  c #00A62E",
"V  c #00A735",
"C  c #0CA83C",
"Z  c #14A73D",
"A  c #19A83E",
"S  c #008C45",
"D  c #219253",
"F  c #1DA941",
"G  c #25A944",
"H  c #35AC4C",
"J  c #39AC4F",
"K  c #3EAD52",
"L  c #42AE56",
"P  c #47AF59",
"I  c #49AF5A",
"U  c #47B05A",
"Y  c #4DB05D",
"T  c #50B05F",
"R  c #429861",
"E  c #499866",
"W  c #539D6D",
"Q  c #51B161",
"!  c #5EB56C",
"~  c #62B76F",
"^  c #7AAE8A",
"/  c #7BBE85",
"(  c #7FC088",
")  c #848685",
"_  c #878887",
"`  c #8C8D8D",
"'  c #908F90",
"]  c #959595",
"[  c #9E9D9D",
"{  c #9FA09F",
"}  c #97BDA3",
"|  c gray67",
" . c #B0ADB0",
".. c #B3B3B3",
"X. c #B8B6B7",
"o. c #BCBCBC",
"O. c #86C38E",
"+. c #87C490",
"@. c #98CA9E",
"#. c #B0D6B5",
"$. c #BED4C5",
"%. c #BEDEC2",
"&. c #C3C4C3",
"*. c #CDCDCD",
"=. c #D0CDCF",
"-. c #C6DFC9",
";. c #D0CED0",
":. c #CFD0D0",
">. c #CCDCD1",
",. c #D3D3D3",
"<. c #D1DFD6",
"1. c #D9D5D8",
"2. c #D7D8D8",
"3. c #DCDCDC",
"4. c #C0E0C4",
"5. c #C6E0CA",
"6. c #CAE3CD",
"7. c #CDE4D0",
"8. c #D2E6D5",
"9. c #D3E9D6",
"0. c #D6E3DA",
"q. c #D7E9D9",
"w. c #DFECE2",
"e. c #DFF1E1",
"r. c #E4E3E4",
"t. c #E0E9E3",
"y. c #EDECED",
"u. c #E4F0E5",
"i. c #E6F1EA",
"p. c #EAF5EC",
"a. c #EBF8ED",
"s. c #EFF6F0",
"d. c #F4F4F4",
"f. c #F4FBF5",
"g. c #F9F7F9",
"h. c #FEFEFE",
"j. c None",
/* pixels */
"j.j.j.j.j.j.j.j.j.j.j.j.h.h.g.g.d.g.h.h.j.j.j.j.j.j.j.j.j.j.j.j.",
"j.j.j.j.j.j.j.j.j.h.g.r.&.] j s d l { &.y.h.h.j.j.j.j.j.j.j.j.j.",
"j.j.j.j.j.j.j.h.g.&.f o o < 8 r w 8 ,   $ j 1.g.j.j.j.j.j.j.j.j.",
"j.j.j.j.j.j.h.r.a   w u i u u t t u u u u 4   g y.h.j.j.j.j.j.j.",
"j.j.j.j.j.h...  0 u t t t t r u u t t r r t t 2   =.h.j.j.j.j.j.",
"j.j.j.j.h.[   i t w r t r t t r r t r r r r w r t   o.h.j.j.j.j.",
"j.j.j.h...  i w r r r t r t t u u u t t r r w w q u   =.h.j.j.j.",
"j.j.h.3.  u q w w r r r r t u 3 O X - 0 t r w w 0 0 r   d.j.j.j.",
"j.j.d.u 8 e w w e e r r u ; * l  ...[ s . 0 r q q 0 r - l h.j.j.",
"j.h.&.  u 0 0 w w w u 0 O ' r.f.p.p.f.h.=.i 1 r 0 0 0 r   3.h.j.",
"j.d.a 3 q 0 w 0 0 u * u ,.h.4.~ B B L @.f.d.f 1 r 0 0 q % _ h.j.",
"j.3.  r 0 0 0 w u   ' g.s.P b G L L J N Z p.y.3 0 0 0 8 0 & y.j.",
"h...  e 0 0 q e   X.h.w.g./ V P J J K P A Q h...  r 0 9 e   ,.j.",
"h.` % 0 0 0 0 # =.h.^ 7 <.h.O.N P L L L T n 7.y., r r e u   ..h.",
"d.s < 0 0 0 < ,.i.m 5 7 5 $.h./ x b c b B x +.h.0           l h.",
"s.r 4 0 w . [ h.8.>.<.<.>.0.h.h.8.8.8.7.5.5.u.h.2.:.:.=.,.:.,.h.",
"s.r 3 0 q   { h.q.7.9.8.9.8.-.6.8.9.7.s.h.f.t.h.2.:.,.:.,.=.2.h.",
"d.s < 9 9 0 < ,.a.G x N c c n b b c x u.f.S ^ h.0           k h.",
"h._ @ 0 8 0 4 X =.h.+.n Y P L P K F u.g.W 6 >.y.: r e e t   ..h.",
"h...  0 8 8 0 0   ..h.#.c G P H V u.h.W 7 E h...  q 4 4 0   ,.j.",
"j.3.  q 4 9 9 9 e   ` g.e.! c C u.h.R 6 S p.y.2 4 8 4 4 9 + y.j.",
"j.d.i 1 4 9 4 9 9 e . u 1.h.%.w.d.D M } g.d.s : 0 4 4 9 X ) h.j.",
"j.h.o.  q 3 4 9 9 4 0 2   ' r.h.s.i.g.h.:.t - 9 4 4 4 e   3.h.j.",
"j.j.d.0 2 9 4 4 4 4 4 0 e .   h | X.[ a   2 9 8 4 4 9 + k h.j.j.",
"j.j.h.2.  r 4 4 4 4 4 9 4 0 0 -       < 0 0 3 3 4 4 9   d.j.j.j.",
"j.j.j.h.|   r 3 4 4 4 4 4 4 4 0 0 q 0 9 3 3 4 3 3 e   =.h.j.j.j.",
"j.j.j.j.h.]   e 8 3 3 4 4 4 4 4 4 4 3 4 4 3 3 9 0   X.h.j.j.j.j.",
"j.j.j.j.j.h.|   < e 4 3 4 4 3 3 4 3 3 3 3 9 q &   *.h.j.j.j.j.j.",
"j.j.j.j.j.j.h.3.e   > 0 0 9 4 4 4 9 9 9 0 *   d y.h.j.j.j.j.j.j.",
"j.j.j.j.j.j.j.h.d.&.a       = , > %       f ,.f.j.j.j.j.j.j.j.j.",
"j.j.j.j.j.j.j.j.j.h.d.r.o.` f p p g ] &.y.g.h.j.j.j.j.j.j.j.j.j.",
"j.j.j.j.j.j.j.j.j.j.j.j.h.h.g.d.d.h.h.h.j.j.j.j.j.j.j.j.j.j.j.j."
};
