/* XPM */
static char *carboncoin__[] = {
/* columns rows colors chars-per-pixel */
"64 64 172 2 ",
"   c #000100",
".  c #000C01",
"X  c #021105",
"o  c #04120A",
"O  c #09160E",
"+  c #091710",
"@  c #0D1912",
"#  c #131C14",
"$  c #141E19",
"%  c #16201B",
"&  c #1B221D",
"*  c #20251E",
"=  c #1E2622",
"-  c #212723",
";  c #242925",
":  c #282C27",
">  c #262C29",
",  c #292E2A",
"<  c #2D312E",
"1  c #30332F",
"2  c #2F3331",
"3  c #323633",
"4  c #353936",
"5  c #373B39",
"6  c #3A3E3C",
"7  c #007300",
"8  c #007E00",
"9  c #007F0C",
"0  c #007F14",
"q  c #3D413E",
"w  c #3F4240",
"e  c #424543",
"r  c #464946",
"t  c #484A47",
"y  c #474A48",
"u  c #4B4D4B",
"i  c #4F504E",
"p  c #50514F",
"a  c #4F5251",
"s  c #525452",
"d  c #565857",
"f  c #5A5C5B",
"g  c #5F6160",
"h  c #636564",
"j  c #676867",
"k  c #676968",
"l  c #6B6C6B",
"z  c #6E706F",
"x  c #6F7170",
"c  c #747575",
"v  c #777877",
"b  c #777978",
"n  c #7A7C7B",
"m  c #009E00",
"M  c #008113",
"N  c #00811C",
"B  c #00A314",
"V  c #00A41C",
"C  c #008426",
"Z  c #00852C",
"A  c #008532",
"S  c #00873D",
"D  c #00893B",
"F  c #00A523",
"G  c #00A62B",
"H  c #01A733",
"J  c #00A834",
"K  c #06A738",
"L  c #08A738",
"P  c #05A93A",
"I  c #0DA93C",
"U  c #15A83C",
"Y  c #19A83E",
"T  c #008941",
"R  c #0B8B47",
"E  c #0C8D49",
"W  c #118D4A",
"Q  c #1B8D4B",
"!  c #179252",
"~  c #1C9252",
"^  c #258E4F",
"/  c #248F50",
"(  c #2A8F51",
")  c #2C9053",
"_  c #359156",
"`  c #2CAA46",
"'  c #2EAA48",
"]  c #33AC4D",
"[  c #39AC4F",
"{  c #3EAD53",
"}  c #42AE56",
"|  c #46AE58",
" . c #49AF5A",
".. c #4AB25D",
"X. c #4A9D6A",
"o. c #7E807E",
"O. c #58B567",
"+. c #5AB669",
"@. c #55A171",
"#. c #5EA478",
"$. c #61B76F",
"%. c #69A97F",
"&. c #61B770",
"*. c #64B872",
"=. c #6DBB79",
"-. c #73BD7E",
";. c #7F8180",
":. c #6BAA81",
">. c #72AD86",
",. c #75BE81",
"<. c #79BF83",
"1. c #7BC085",
"2. c #828383",
"3. c #878988",
"4. c #8B8B8B",
"5. c #8F908F",
"6. c #929393",
"7. c #979897",
"8. c #979898",
"9. c #9A9B9A",
"0. c #9EA09E",
"q. c #8CB99B",
"w. c #A2A3A3",
"e. c #ACACAC",
"r. c #B4B4B4",
"t. c #BBBBBB",
"y. c #80C189",
"u. c #8CC694",
"i. c #94C99C",
"p. c #9DCDA4",
"a. c #9EC3AB",
"s. c #A3D1AA",
"d. c #A9D3AF",
"f. c #A4C7B1",
"g. c #A6C8B2",
"h. c #AACBB6",
"j. c #AFCDB9",
"k. c #B0CEBA",
"l. c #ADD5B2",
"z. c #B5D1BE",
"x. c #B6D9BA",
"c. c #B7D2C1",
"v. c #BCD5C4",
"b. c #BEDCC2",
"n. c #C3C3C3",
"m. c #C7C8C8",
"M. c #CCCCCC",
"N. c #CFD0D0",
"B. c #CBDED1",
"V. c #D4D5D4",
"C. c #D7D8D7",
"Z. c #DCDCDC",
"A. c #C6E1C9",
"S. c #C9E2CC",
"D. c #CDE0D4",
"F. c #D1E4D5",
"G. c #D5E8D7",
"H. c #DFE0DF",
"J. c #D7EADA",
"K. c #DBEBDE",
"L. c #DFE0E0",
"P. c #DEEDE1",
"I. c #E3E3E3",
"U. c #E1EDE4",
"Y. c #E5EFE9",
"T. c #EBECEB",
"R. c #EDF5EE",
"E. c #EFF7F1",
"W. c #F3F4F3",
"Q. c #F3F8F5",
"!. c #FEFEFE",
"~. c None",
/* pixels */
"~.~.~.~.~.~.~.~.~.~.~.~.~.~.~.~.~.~.~.~.~.~.~.~.~.~.!.!.!.!.!.!.!.!.!.!.!.~.~.~.~.~.~.~.~.~.~.~.~.~.~.~.~.~.~.~.~.~.~.~.~.~.~.~.",
"~.~.~.~.~.~.~.~.~.~.~.~.~.~.~.~.~.~.~.~.~.~.!.!.!.!.!.!.!.!.W.W.W.W.!.!.!.!.!.!.!.!.~.~.~.~.~.~.~.~.~.~.~.~.~.~.~.~.~.~.~.~.~.~.",
"~.~.~.~.~.~.~.~.~.~.~.~.~.~.~.~.~.~.~.~.!.!.!.!.T.N.r.7.2.x j h h j v 4.w.t.C.W.!.!.!.!.~.~.~.~.~.~.~.~.~.~.~.~.~.~.~.~.~.~.~.~.",
"~.~.~.~.~.~.~.~.~.~.~.~.~.~.~.~.~.!.!.!.!.I.r.2.s 1 , 3 q e r u u r e 6 1 , 6 h 6.n.T.!.!.!.~.~.~.~.~.~.~.~.~.~.~.~.~.~.~.~.~.~.",
"~.~.~.~.~.~.~.~.~.~.~.~.~.~.~.~.!.!.!.M.4.t 1 q u d d s s p p p p p s s d d p t 4 : f w.Z.!.!.!.~.~.~.~.~.~.~.~.~.~.~.~.~.~.~.~.",
"~.~.~.~.~.~.~.~.~.~.~.~.~.~.!.!.!.N.v < 5 p s p p u i i i i i i i i i i u p u i p s r , q 7.I.!.!.!.~.~.~.~.~.~.~.~.~.~.~.~.~.~.",
"~.~.~.~.~.~.~.~.~.~.~.~.~.!.!.I.4.1 q p p p i p p p p i p p i i i p p i i i i i i u u p i , e e.W.!.!.~.~.~.~.~.~.~.~.~.~.~.~.~.",
"~.~.~.~.~.~.~.~.~.~.~.!.!.!.t.u 3 p p i i i i i i i i i i i i i i i p i u i i u i u u u u p u % x Z.!.!.~.~.~.~.~.~.~.~.~.~.~.~.",
"~.~.~.~.~.~.~.~.~.~.!.!.W.8.; u i u u u i i i i i i i i i i i i i i i i i i u i u u u u u u r p 5 q t.!.!.!.~.~.~.~.~.~.~.~.~.~.",
"~.~.~.~.~.~.~.~.~.!.!.T.b ; p u u u u u u u u i i u i i i i i i i i i u i u u u u u u u r u u r u t # w.!.!.!.~.~.~.~.~.~.~.~.~.",
"~.~.~.~.~.~.~.~.!.!.I.k 1 p u t u u u u u u i u u i i i i i i i u i i u i u u u u u u u t r r r t t u X 8.!.!.~.~.~.~.~.~.~.~.~.",
"~.~.~.~.~.~.~.!.!.T.k 4 p t u t u u u u u i u i u i u i i u u i i i u i u u u u u t u t u r r r t e r u o 8.!.!.~.~.~.~.~.~.~.~.",
"~.~.~.~.~.~.~.!.W.c < u r t t t u u u u u u i u u i u i i u i u i u i u u u u u u u u u t t r r r t e r u . e.!.!.~.~.~.~.~.~.~.",
"~.~.~.~.~.~.!.!.6.- u r r t t t t u u t u u u u u u u u i i u i u u u i u u u u t u t u t t t r r e e e r t @ n.!.!.~.~.~.~.~.~.",
"~.~.~.~.~.!.!.t.# u r r y y u t t u t u u u u u u u u u u u u u i u u u u u u u u t t t t t r r r t r e e r e e I.!.!.~.~.~.~.~.",
"~.~.~.~.~.!.H.q r t r r r y y t t t u t u u u u u i u u u u p p p i i i s s i u u t t t t t e t e e r e e e r , n !.!.~.~.~.~.~.",
"~.~.~.~.!.!.2., u e t t r t t r t t u t u u t u u u u u p p q ; : q e 5 ; * 3 t s u t t r r r r t e r e e e e u   t.!.!.~.~.~.~.",
"~.~.~.!.!.m.# u e e t e r r r r t t t t t u u u t u p i 3 1 x e.M.Z.Z.C.M.r.4.u & t u t r r r r e t e e e e e e 5 d T.!.~.~.~.~.",
"~.~.~.!.!.l 4 r e t t e r r r t y y t t t u t t u s 4 4 5.N.!.!.!.!.!.!.!.!.!.I.r.s , u t r r e t e r e e e e w t . e.!.!.~.~.~.",
"~.~.~.!.n.o u e e e e t e r r r r t y t y t t a e : 2.V.!.!.!.R.F.b.b.S.K.Q.!.!.!.T.7.- t r r e e r e e e w e e w q p T.!.~.~.~.",
"~.~.!.!.b < r e e e t e t e r r r r r t y u a , f n.!.!.!.J.i.} G V V F K O.p.U.!.!.!.r.; t t r e r e e e e e w w y   t.!.!.~.~.",
"~.~.!.Z.: r e e e e e t e t e r r r t t u t - 6.T.!.!.J.1.G G ] } } } } } ' G I s.!.!.!.t.- u e e e e e e e w w w e , x !.!.~.~.",
"~.!.!.w.o t e e e e r e e r r r r r r u 6 r n.!.!.Q.p.H P } } [ [ [ [ [ [ [ } } B -.Q.!.!.w.& u e e e e e e w w w e e > C.!.~.~.",
"~.!.!.l 1 e e w e e e e e r e r r r i ; z Z.!.!.!.s.m ..} [ [ [ [ [ [ [ [ [ [ [ | G -.!.!.W.l 6 t e e e w w w e q q r   r.!.!.~.",
"~.!.I.1 e e q w e e e e e e r r r u # 6.W.!.!.!.!.U.{ ' { [ [ [ [ [ [ [ [ [ [ [ [ } B s.!.!.m.# r e q e e q e q q q e = n !.!.~.",
"~.!.n.  r e e w e e e e e e e t r & e.!.!.Y.>.B.!.!.P.] ' { [ [ [ [ [ [ [ [ [ [ [ [ } H P.!.W.z 4 r e e q e q e e q e 5 u T.!.~.",
"!.!.9.X r w e q w e e e e e t w 1 n.!.!.F.! 0 Z D.!.!.P.] ' { [ [ [ [ [ [ [ [ { [ [ } H i.!.!.r.. t q e e q w q 6 q w e & C.!.~.",
"!.!.;.- r q w e e e w e e t 6 r N.!.!.v.C T ) R C D.!.!.P.] ' { [ [ [ [ [ [ [ [ [ [ [ [ } R.!.Z.1 r e e e e q q w q 6 r   n.!.~.",
"!.!.h 1 e e e w w e e w t 5 d C.!.!.g.M ( / Q / Q A B.!.!.P.] ' } { { { } { { { { { { } H F.!.T.g q t r e e e e e e e t   e.!.!.",
"!.W.s 5 w w q q w w e e q p H.!.!.q.7 S A Z A A D A 8 B.!.!.P.] H Y U U U U U U U U U ` m l.!.!.n   3 , , , < , > > > 3   8.!.!.",
"!.T.r 6 w q w e e w e t o r.!.!.g.X.:.:.:.:.:.:.%.>.@.z.!.!.!.P.<.<.1.<.,.1.1.,.1.<.<.1.-.J.!.!.w.k b c x c c c c c x c h w.!.!.",
"!.I.6 w w w w w w w e e 1 H.!.!.!.!.!.!.!.!.!.!.!.!.!.!.!.!.!.!.!.!.!.!.!.!.!.!.!.!.!.!.!.!.!.!.!.Q.!.!.!.!.Q.!.Q.!.Q.!.!.!.!.!.",
"!.I.6 q w q q w w w e e < L.!.!.!.!.!.!.!.!.!.!.!.!.!.!.!.!.!.!.!.!.!.!.!.!.!.!.!.!.!.!.!.!.!.!.!.!.!.!.!.!.!.!.!.Q.!.!.Q.!.!.!.",
"!.T.e 6 e q w q w w w r . r.!.!.x.O.1.,.,.,.-.,.,.,.,.,.,.,.,.,.,.-.-.1.1.=.l.!.!.!.!.z.#.U.!.!.w.k c c b b c c c c v v l w.!.!.",
"!.W.i 4 q 6 q w q q e e 6 s L.!.!.p.m ` Y Y Y Y U U Y Y Y Y Y Y Y Y Y U ] m -.!.!.!.j.M 7 h.!.!.b   2 > > - > - ; ; = 2   8.!.!.",
"!.!.h 2 e q 6 e e q 6 e e 4 d Z.!.!.x.G { } { } { { { { { [ { { { { [  .Y *.E.!.!.j.8 _ C B.!.W.h 6 r e e w e e e w q y   e.!.!.",
"!.!.o.& e 6 6 6 6 q w e q t 4 t N.!.!.A.P ' } [ [ [ [ [ [ [ [ [ [ [ } L &.E.!.!.j.8 ( R ~ R.!.Z., e q q 6 q q 6 6 q 6 e   n.!.~.",
"!.!.9.  r 6 q q q w 6 q w q t 5 1 n.!.!.J...H | [ [ [ [ [ [ [ [ [ } L *.E.!.!.k.8 ^ ^ N q.!.!.r.  r q q w 6 q q 6 6 6 w $ V.!.~.",
"~.!.n.  r 6 6 e 6 e q e w w q e e # e.!.!.R.1.V { { [ [ [ [ [ [ } L $.R.!.!.k.8 ^ W ^ Z P.!.W.z < e q q 6 q 6 6 6 6 6 4 u T.!.~.",
"~.!.L., w w 6 6 6 6 q 6 q q q q e r . 6.R.!.!.d.H ` } [ [ [ [ } L &.R.!.!.l.M ^ R ) 8 a.!.!.m.X e q 6 q q 6 6 6 6 6 w & n !.!.~.",
"~.!.!.h < w 6 6 q q 6 q q q q q 6 e r + z H.!.!.G.O.F { } [ | L &.E.!.!.k.8 ^ W ) 9 :.!.!.Q.k 2 w w 6 w 6 6 6 6 6 6 w   e.!.!.~.",
"~.!.!.w.  e 6 q 6 q q q q q q q q 6 e t < e n.!.!.Q.s.P H } H $.E.!.!.k.8 ) ( Q 8 >.Q.!.!.0.X e 6 w 6 6 6 6 6 5 6 6 w % Z.!.~.~.",
"~.~.!.C.% w 6 6 6 q 6 q q q q q 6 q q 6 r 6 O 6.T.!.!.P.u.G *.E.!.!.z.N ) D 9 D f.!.!.!.t.@ w q 6 w w 6 6 6 6 6 6 w - z !.!.~.~.",
"~.~.!.!.c - e 6 q 6 q 6 6 q q q e 6 6 e 6 w r @ d n.!.!.!.K.Q.!.!.f.7 C D X.a.Y.!.!.!.r.% w w 6 6 6 6 6 6 6 6 6 5 w   t.!.!.~.~.",
"~.~.~.!.t.  e 6 6 6 6 6 6 6 q q 6 q q q w w w r 5 o 2.V.!.!.!.!.Q.c.v.B.P.Q.!.!.!.T.6.X w w 6 q 6 6 6 w 6 6 6 6 6 3 u T.!.~.~.~.",
"~.~.~.!.!.g , w 6 6 6 6 q q 6 6 q q q 6 q 6 q 6 w r = > 5.V.Q.!.!.!.!.!.!.!.!.I.r.s @ e w 6 q 6 6 6 6 6 5 6 5 5 e   e.!.!.~.~.~.",
"~.~.~.!.!.t.  e 6 6 6 6 6 6 q 6 6 q w q w q q 6 q q e e $ $ x e.N.Z.I.Z.N.r.3.e   4 e 6 6 6 q 6 6 6 6 6 6 5 6 6 3 i T.!.~.~.~.~.",
"~.~.~.~.!.!.v = e 6 6 6 6 6 6 6 q 6 6 6 6 6 6 w 6 q q 6 e e ,   X , 3 > .   $ 6 e q q 6 6 6 6 6 6 6 6 5 6 6 5 w   t.!.!.~.~.~.~.",
"~.~.~.~.~.!.C.> q 6 6 6 6 6 6 6 6 w 6 w 6 6 w 6 w 6 w 6 6 w w r w w w w w e w q w 6 6 6 6 6 6 6 6 6 6 5 5 5 w # b !.!.~.~.~.~.~.",
"~.~.~.~.~.!.!.r.  e 5 6 6 6 6 6 6 6 5 6 6 6 5 w 6 6 6 6 w 6 6 6 w q 6 q w 6 q 6 6 6 6 6 6 6 5 6 6 5 6 5 5 6 5 5 L.!.!.~.~.~.~.~.",
"~.~.~.~.~.~.!.!.3.  e 6 5 6 6 6 6 6 6 6 6 w 5 6 6 6 6 6 6 6 6 6 6 6 q 6 q 6 6 6 6 6 5 6 6 6 6 6 6 5 5 5 6 e   n.!.!.~.~.~.~.~.~.",
"~.~.~.~.~.~.~.!.T.k & e 5 6 6 5 6 6 6 6 6 6 6 6 6 6 w 6 6 6 w 6 6 6 6 6 6 6 6 6 6 6 6 6 6 5 5 6 5 5 5 5 e   w.!.!.~.~.~.~.~.~.~.",
"~.~.~.~.~.~.~.!.!.I.s - w 6 6 6 6 6 6 6 5 6 6 6 6 6 6 6 6 6 6 6 6 6 6 6 5 6 6 6 6 6 6 6 5 5 5 5 5 5 5 e   8.!.!.~.~.~.~.~.~.~.~.",
"~.~.~.~.~.~.~.~.!.!.I.d % w 5 6 5 6 5 5 6 6 6 6 6 6 6 6 5 6 5 6 6 6 6 6 6 6 6 5 5 5 5 5 5 5 5 5 5 6 e   6.!.!.~.~.~.~.~.~.~.~.~.",
"~.~.~.~.~.~.~.~.~.!.!.I.k   w q 5 5 5 6 5 6 5 6 6 6 6 6 6 6 5 6 6 6 6 5 5 6 5 6 5 5 6 5 5 5 5 5 6 6   0.!.!.!.~.~.~.~.~.~.~.~.~.",
"~.~.~.~.~.~.~.~.~.~.!.!.W.4.  5 w 5 5 5 5 5 6 5 6 5 5 5 5 6 5 6 5 5 6 5 5 6 5 5 5 5 5 5 5 5 5 w = - t.!.!.!.~.~.~.~.~.~.~.~.~.~.",
"~.~.~.~.~.~.~.~.~.~.~.!.!.!.r.1 @ w q 6 5 6 5 5 6 5 5 6 5 5 6 5 5 6 5 5 5 5 5 5 5 5 5 5 5 w 5   k C.!.!.~.~.~.~.~.~.~.~.~.~.~.~.",
"~.~.~.~.~.~.~.~.~.~.~.~.~.!.!.L.n   = w w 5 5 5 5 5 5 5 5 5 5 5 5 5 5 5 5 5 5 5 6 5 6 w 5   < e.W.!.!.~.~.~.~.~.~.~.~.~.~.~.~.~.",
"~.~.~.~.~.~.~.~.~.~.~.~.~.~.!.!.!.m.l   @ 6 w w 5 5 5 5 5 5 5 5 5 5 5 5 5 5 5 5 w w 1   > 6.L.!.!.!.~.~.~.~.~.~.~.~.~.~.~.~.~.~.",
"~.~.~.~.~.~.~.~.~.~.~.~.~.~.~.~.!.!.!.m.o.>   $ 5 w w w 6 6 6 6 6 6 6 w w w 6 <     u 9.Z.!.!.!.~.~.~.~.~.~.~.~.~.~.~.~.~.~.~.~.",
"~.~.~.~.~.~.~.~.~.~.~.~.~.~.~.~.~.!.!.!.!.I.e.c 6       # = , < , > = o     o a 4.n.T.!.!.!.~.~.~.~.~.~.~.~.~.~.~.~.~.~.~.~.~.~.",
"~.~.~.~.~.~.~.~.~.~.~.~.~.~.~.~.~.~.~.~.!.!.!.!.I.M.e.6.b h f s d g k 2.9.t.C.W.!.!.!.!.~.~.~.~.~.~.~.~.~.~.~.~.~.~.~.~.~.~.~.~.",
"~.~.~.~.~.~.~.~.~.~.~.~.~.~.~.~.~.~.~.~.~.~.!.!.!.!.!.!.!.!.W.W.W.W.!.!.!.!.!.!.!.!.~.~.~.~.~.~.~.~.~.~.~.~.~.~.~.~.~.~.~.~.~.~.",
"~.~.~.~.~.~.~.~.~.~.~.~.~.~.~.~.~.~.~.~.~.~.~.~.~.~.!.!.!.!.!.!.!.!.!.!.!.~.~.~.~.~.~.~.~.~.~.~.~.~.~.~.~.~.~.~.~.~.~.~.~.~.~.~."
};
