<?xml version="1.0" standalone="no"?>
<!DOCTYPE svg PUBLIC "-//W3C//DTD SVG 20010904//EN"
 "http://www.w3.org/TR/2001/REC-SVG-20010904/DTD/svg10.dtd">
<svg version="1.0" xmlns="http://www.w3.org/2000/svg"
 width="600.000000pt" height="600.000000pt" viewBox="0 0 600.000000 600.000000"
 preserveAspectRatio="xMidYMid meet">

<g transform="translate(0.000000,600.000000) scale(0.100000,-0.100000)"
fill="#000000" stroke="none">
<path d="M2640 5965 c-8 -2 -62 -11 -120 -20 -475 -74 -964 -288 -1360 -596
-120 -92 -347 -313 -457 -444 -255 -304 -478 -735 -582 -1125 -119 -449 -131
-951 -35 -1400 73 -338 215 -686 397 -970 212 -331 528 -656 846 -869 292
-197 613 -339 956 -425 277 -69 296 -71 715 -70 l385 0 148 32 c553 118 981
321 1377 653 492 412 849 1001 989 1634 52 235 56 282 56 645 0 317 -2 356
-23 475 -119 661 -401 1200 -863 1650 -431 420 -954 688 -1572 806 -100 20
-153 22 -477 25 -201 1 -372 1 -380 -1z m760 -199 c632 -95 1234 -416 1653
-881 290 -322 499 -692 612 -1085 57 -198 84 -344 120 -657 l5 -43 -635 0
-634 0 -5 48 c-34 280 -121 525 -254 711 -103 146 -293 303 -464 384 -228 108
-545 155 -754 111 -379 -78 -932 -426 -1522 -957 -134 -120 -216 -211 -240
-267 -11 -23 -16 -65 -16 -120 0 -157 45 -217 380 -504 587 -505 1062 -787
1434 -852 276 -48 660 46 905 221 84 59 198 172 263 260 137 184 262 524 262
715 l0 60 639 0 640 0 -5 -32 c-2 -18 -11 -94 -19 -168 -60 -522 -238 -973
-549 -1390 -96 -129 -414 -445 -549 -546 -367 -275 -794 -452 -1277 -530 -153
-25 -545 -30 -715 -9 -452 54 -867 205 -1230 447 -174 116 -276 199 -426 348
-451 449 -728 1018 -810 1665 -18 144 -16 492 5 648 133 1020 791 1871 1740
2252 214 86 409 138 671 180 122 19 624 13 775 -9z m-5 -1627 c258 -36 512
-193 670 -414 96 -134 195 -391 195 -504 0 -35 -6 -51 -27 -73 l-27 -28 -567
0 c-311 0 -581 3 -600 7 -25 5 -73 46 -202 172 -177 173 -405 413 -433 456
-34 52 13 100 205 209 140 80 267 134 411 173 74 20 99 22 195 17 61 -3 142
-10 180 -15z m-1168 -567 c74 -64 277 -272 337 -345 33 -41 36 -48 25 -69 -7
-13 -17 -26 -23 -30 -6 -4 -245 -8 -531 -7 l-520 0 75 70 c96 90 354 309 449
382 41 33 83 57 97 57 14 0 50 -23 91 -58z m1376 -695 c30 -20 42 -54 32 -94
-4 -17 -127 -148 -338 -361 -384 -387 -456 -452 -495 -452 -57 0 -294 132
-515 287 -183 129 -541 421 -695 568 l-64 60 149 6 c81 3 542 5 1024 5 815 -1
877 -2 902 -19z m629 -18 c30 -30 31 -32 24 -101 -12 -126 -87 -317 -179 -452
-87 -129 -236 -260 -373 -329 -66 -33 -185 -72 -304 -98 -97 -21 -285 -30
-310 -14 -13 8 339 367 782 796 l236 229 47 0 c39 0 52 -5 77 -31z"/>
</g>
</svg>
